<?xml version="1.0" encoding="UTF-8" standalone="no"?>
<svg
   width="269.23901mm"
   height="140.40401mm"
   viewBox="0 0 269.23901 140.40401"
   version="1.1"
   id="svg8"
   inkscape:version="1.2 (dc2aeda, 2022-05-15)"
   sodipodi:docname="nanokey-inkscape.svg"
   xmlns:inkscape="http://www.inkscape.org/namespaces/inkscape"
   xmlns:sodipodi="http://sodipodi.sourceforge.net/DTD/sodipodi-0.dtd"
   xmlns="http://www.w3.org/2000/svg"
   xmlns:svg="http://www.w3.org/2000/svg"
   xmlns:rdf="http://www.w3.org/1999/02/22-rdf-syntax-ns#"
   xmlns:cc="http://creativecommons.org/ns#"
   xmlns:dc="http://purl.org/dc/elements/1.1/">
  <defs
     id="defs2">
    <clipPath
       clipPathUnits="userSpaceOnUse"
       id="clipPath871">
      <path
         d="M 42.52,61.552 H 799.416 V 552.756 H 42.52 Z"
         id="path869" />
    </clipPath>
  </defs>
  <sodipodi:namedview
     id="base"
     pagecolor="#ffffff"
     bordercolor="#666666"
     borderopacity="1.0"
     inkscape:pageopacity="0.0"
     inkscape:pageshadow="2"
     inkscape:zoom="0.98994949"
     inkscape:cx="168.1904"
     inkscape:cy="319.71328"
     inkscape:document-units="mm"
     inkscape:current-layer="layer1"
     inkscape:document-rotation="0"
     showgrid="false"
     inkscape:window-width="1680"
     inkscape:window-height="997"
     inkscape:window-x="0"
     inkscape:window-y="357"
     inkscape:window-maximized="0"
     showborder="false"
     inkscape:showpageshadow="2"
     inkscape:pagecheckerboard="0"
     inkscape:deskcolor="#d1d1d1" />
  <metadata
     id="metadata5">
    <rdf:RDF>
      <cc:Work
         rdf:about="">
        <dc:format>image/svg+xml</dc:format>
        <dc:type
           rdf:resource="http://purl.org/dc/dcmitype/StillImage" />
        <dc:title />
      </cc:Work>
    </rdf:RDF>
  </metadata>
  <g
     inkscape:label="nanoKEY Studio"
     inkscape:groupmode="layer"
     id="layer1">
    <path
       d="m 269.09891,4.4412194 c 0,-2.3750009 -1.92564,-4.30064416 -4.30003,-4.30072603 L 4.4400425,0.1404115 c -2.3741412,0 -4.29896577,1.9256432 -4.29929326,4.3008489 L 0.14042175,135.96462 c 0,2.37336 1.92482455,4.299 4.29945705,4.29909 l 260.3590812,8e-5 c 2.37414,0 4.29979,-1.92564 4.29987,-4.29921 z"
       style="display:inline;fill:none;stroke:#231f20;stroke-width:0.280823;stroke-linecap:round;stroke-linejoin:round;stroke-miterlimit:10;stroke-dasharray:none;stroke-opacity:1"
       id="path1143"
       sodipodi:nodetypes="ccccccccc"
       inkscape:label="outline"
       sodipodi:insensitive="true" />
    <g
       id="g5172"
       inkscape:label="piano keys"
       transform="matrix(0.81872587,0,0,-0.81872587,-92.988336,314.27513)">
      <path
         d="m 147.8642,299.4854 0.617,-0.06 0.594,-0.179 0.547,-0.292 0.478,-0.394 0.394,-0.478 0.291,-0.547 0.18,-0.594 0.061,-0.617 v -33.51 l -0.061,-0.617 -0.18,-0.594 -0.291,-0.547 -0.394,-0.479 -0.478,-0.393 -0.547,-0.291 -0.594,-0.181 -0.617,-0.061 h -13.429 l -0.617,0.061 -0.593,0.181 -0.547,0.291 -0.48,0.393 -0.393,0.479 -0.293,0.547 -0.179,0.594 -0.06,0.617 v 33.51 l 0.06,0.617 0.179,0.594 0.293,0.547 0.393,0.478 0.48,0.394 0.547,0.292 0.593,0.179 0.617,0.06 z"
         style="fill:none;stroke:#231f20;stroke-width:0.343;stroke-linecap:round;stroke-linejoin:round;stroke-miterlimit:10;stroke-dasharray:none;stroke-opacity:1"
         id="path1559" />
      <path
         d="m 137.3374,256.2823 0.617,-0.061 0.594,-0.178 0.546,-0.294 0.478,-0.393 0.394,-0.479 0.292,-0.547 0.18,-0.594 0.06,-0.616 v -33.509 l -0.06,-0.617 -0.18,-0.594 -0.292,-0.547 -0.394,-0.479 -0.478,-0.393 -0.546,-0.293 -0.594,-0.179 -0.617,-0.061 h -13.43 l -0.617,0.061 -0.593,0.179 -0.547,0.293 -0.479,0.393 -0.393,0.479 -0.293,0.547 -0.179,0.594 -0.061,0.617 v 33.509 l 0.061,0.616 0.179,0.594 0.293,0.547 0.393,0.479 0.479,0.393 0.547,0.294 0.593,0.178 0.617,0.061 z"
         style="fill:none;stroke:#231f20;stroke-width:0.343;stroke-linecap:round;stroke-linejoin:round;stroke-miterlimit:10;stroke-dasharray:none;stroke-opacity:1"
         id="path1567" />
      <path
         d="m 158.3915,256.2823 0.617,-0.061 0.594,-0.178 0.546,-0.294 0.478,-0.393 0.394,-0.479 0.292,-0.547 0.18,-0.594 0.061,-0.616 v -33.509 l -0.061,-0.617 -0.18,-0.594 -0.292,-0.547 -0.394,-0.479 -0.478,-0.393 -0.546,-0.293 -0.594,-0.179 -0.617,-0.061 h -13.43 l -0.617,0.061 -0.593,0.179 -0.547,0.293 -0.479,0.393 -0.393,0.479 -0.293,0.547 -0.179,0.594 -0.061,0.617 v 33.509 l 0.061,0.616 0.179,0.594 0.293,0.547 0.393,0.479 0.479,0.393 0.547,0.294 0.593,0.178 0.617,0.061 z"
         style="fill:none;stroke:#231f20;stroke-width:0.343;stroke-linecap:round;stroke-linejoin:round;stroke-miterlimit:10;stroke-dasharray:none;stroke-opacity:1"
         id="path1575" />
      <path
         d="m 179.4456,256.2823 0.617,-0.061 0.593,-0.178 0.547,-0.294 0.479,-0.393 0.393,-0.479 0.292,-0.547 0.18,-0.594 0.061,-0.616 v -33.509 l -0.061,-0.617 -0.18,-0.594 -0.292,-0.547 -0.393,-0.479 -0.479,-0.393 -0.547,-0.293 -0.593,-0.179 -0.617,-0.061 h -13.429 l -0.617,0.061 -0.594,0.179 -0.547,0.293 -0.479,0.393 -0.393,0.479 -0.292,0.547 -0.18,0.594 -0.061,0.617 v 33.509 l 0.061,0.616 0.18,0.594 0.292,0.547 0.393,0.479 0.479,0.393 0.547,0.294 0.594,0.178 0.617,0.061 z"
         style="fill:none;stroke:#231f20;stroke-width:0.343;stroke-linecap:round;stroke-linejoin:round;stroke-miterlimit:10;stroke-dasharray:none;stroke-opacity:1"
         id="path1583" />
      <path
         d="m 200.4998,256.2823 0.617,-0.061 0.593,-0.178 0.547,-0.294 0.48,-0.393 0.392,-0.479 0.292,-0.547 0.181,-0.594 0.061,-0.616 v -33.509 l -0.061,-0.617 -0.181,-0.594 -0.292,-0.547 -0.392,-0.479 -0.48,-0.393 -0.547,-0.293 -0.593,-0.179 -0.617,-0.061 h -13.429 l -0.617,0.061 -0.594,0.179 -0.547,0.293 -0.479,0.393 -0.393,0.479 -0.292,0.547 -0.18,0.594 -0.061,0.617 v 33.509 l 0.061,0.616 0.18,0.594 0.292,0.547 0.393,0.479 0.479,0.393 0.547,0.294 0.594,0.178 0.617,0.061 z"
         style="fill:none;stroke:#231f20;stroke-width:0.343;stroke-linecap:round;stroke-linejoin:round;stroke-miterlimit:10;stroke-dasharray:none;stroke-opacity:1"
         id="path1591" />
      <path
         d="m 221.5535,256.2823 0.617,-0.061 0.594,-0.178 0.547,-0.294 0.479,-0.393 0.393,-0.479 0.291,-0.547 0.181,-0.594 0.061,-0.616 v -33.509 l -0.061,-0.617 -0.181,-0.594 -0.291,-0.547 -0.393,-0.479 -0.479,-0.393 -0.547,-0.293 -0.594,-0.179 -0.617,-0.061 h -13.429 l -0.617,0.061 -0.593,0.179 -0.547,0.293 -0.48,0.393 -0.392,0.479 -0.292,0.547 -0.181,0.594 -0.06,0.617 v 33.509 l 0.06,0.616 0.181,0.594 0.292,0.547 0.392,0.479 0.48,0.393 0.547,0.294 0.593,0.178 0.617,0.061 z"
         style="fill:none;stroke:#231f20;stroke-width:0.343;stroke-linecap:round;stroke-linejoin:round;stroke-miterlimit:10;stroke-dasharray:none;stroke-opacity:1"
         id="path1599" />
      <path
         d="m 242.6076,256.2823 0.617,-0.061 0.594,-0.178 0.547,-0.294 0.479,-0.393 0.393,-0.479 0.291,-0.547 0.182,-0.594 0.06,-0.616 v -33.509 l -0.06,-0.617 -0.182,-0.594 -0.291,-0.547 -0.393,-0.479 -0.479,-0.393 -0.547,-0.293 -0.594,-0.179 -0.617,-0.061 h -13.429 l -0.617,0.061 -0.594,0.179 -0.546,0.293 -0.48,0.393 -0.392,0.479 -0.292,0.547 -0.18,0.594 -0.061,0.617 v 33.509 l 0.061,0.616 0.18,0.594 0.292,0.547 0.392,0.479 0.48,0.393 0.546,0.294 0.594,0.178 0.617,0.061 z"
         style="fill:none;stroke:#231f20;stroke-width:0.343;stroke-linecap:round;stroke-linejoin:round;stroke-miterlimit:10;stroke-dasharray:none;stroke-opacity:1"
         id="path1607" />
      <path
         d="m 263.6617,256.2823 0.617,-0.061 0.594,-0.178 0.546,-0.294 0.48,-0.393 0.392,-0.479 0.293,-0.547 0.181,-0.594 0.06,-0.616 v -33.509 l -0.06,-0.617 -0.181,-0.594 -0.293,-0.547 -0.392,-0.479 -0.48,-0.393 -0.546,-0.293 -0.594,-0.179 -0.617,-0.061 h -13.429 l -0.617,0.061 -0.594,0.179 -0.546,0.293 -0.48,0.393 -0.392,0.479 -0.292,0.547 -0.18,0.594 -0.061,0.617 v 33.509 l 0.061,0.616 0.18,0.594 0.292,0.547 0.392,0.479 0.48,0.393 0.546,0.294 0.594,0.178 0.617,0.061 z"
         style="fill:none;stroke:#231f20;stroke-width:0.343;stroke-linecap:round;stroke-linejoin:round;stroke-miterlimit:10;stroke-dasharray:none;stroke-opacity:1"
         id="path1615" />
      <path
         d="m 284.7159,256.2823 0.617,-0.061 0.594,-0.178 0.546,-0.294 0.48,-0.393 0.392,-0.479 0.292,-0.547 0.182,-0.594 0.06,-0.616 v -33.509 l -0.06,-0.617 -0.182,-0.594 -0.292,-0.547 -0.392,-0.479 -0.48,-0.393 -0.546,-0.293 -0.594,-0.179 -0.617,-0.061 h -13.429 l -0.617,0.061 -0.594,0.179 -0.547,0.293 -0.478,0.393 -0.393,0.479 -0.292,0.547 -0.179,0.594 -0.063,0.617 v 33.509 l 0.063,0.616 0.179,0.594 0.292,0.547 0.393,0.479 0.478,0.393 0.547,0.294 0.594,0.178 0.617,0.061 z"
         style="fill:none;stroke:#231f20;stroke-width:0.343;stroke-linecap:round;stroke-linejoin:round;stroke-miterlimit:10;stroke-dasharray:none;stroke-opacity:1"
         id="path1623" />
      <path
         d="m 305.7701,256.2823 0.617,-0.061 0.594,-0.178 0.546,-0.294 0.48,-0.393 0.392,-0.479 0.292,-0.547 0.182,-0.594 0.06,-0.616 v -33.509 l -0.06,-0.617 -0.182,-0.594 -0.292,-0.547 -0.392,-0.479 -0.48,-0.393 -0.546,-0.293 -0.594,-0.179 -0.617,-0.061 h -13.429 l -0.617,0.061 -0.594,0.179 -0.547,0.293 -0.479,0.393 -0.393,0.479 -0.291,0.547 -0.18,0.594 -0.062,0.617 v 33.509 l 0.062,0.616 0.18,0.594 0.291,0.547 0.393,0.479 0.479,0.393 0.547,0.294 0.594,0.178 0.617,0.061 z"
         style="fill:none;stroke:#231f20;stroke-width:0.343;stroke-linecap:round;stroke-linejoin:round;stroke-miterlimit:10;stroke-dasharray:none;stroke-opacity:1"
         id="path1631" />
      <path
         d="m 326.8242,256.2823 0.617,-0.061 0.593,-0.178 0.547,-0.294 0.48,-0.393 0.392,-0.479 0.292,-0.547 0.182,-0.594 0.06,-0.616 v -33.509 l -0.06,-0.617 -0.182,-0.594 -0.292,-0.547 -0.392,-0.479 -0.48,-0.393 -0.547,-0.293 -0.593,-0.179 -0.617,-0.061 h -13.429 l -0.617,0.061 -0.594,0.179 -0.547,0.293 -0.479,0.393 -0.393,0.479 -0.291,0.547 -0.18,0.594 -0.062,0.617 v 33.509 l 0.062,0.616 0.18,0.594 0.291,0.547 0.393,0.479 0.479,0.393 0.547,0.294 0.594,0.178 0.617,0.061 z"
         style="fill:none;stroke:#231f20;stroke-width:0.343;stroke-linecap:round;stroke-linejoin:round;stroke-miterlimit:10;stroke-dasharray:none;stroke-opacity:1"
         id="path1639" />
      <path
         d="m 347.8783,256.2823 0.617,-0.061 0.593,-0.178 0.547,-0.294 0.48,-0.393 0.392,-0.479 0.294,-0.547 0.179,-0.594 0.061,-0.616 v -33.509 l -0.061,-0.617 -0.179,-0.594 -0.294,-0.547 -0.392,-0.479 -0.48,-0.393 -0.547,-0.293 -0.593,-0.179 -0.617,-0.061 h -13.429 l -0.617,0.061 -0.594,0.179 -0.547,0.293 -0.478,0.393 -0.394,0.479 -0.291,0.547 -0.18,0.594 -0.062,0.617 v 33.509 l 0.062,0.616 0.18,0.594 0.291,0.547 0.394,0.479 0.478,0.393 0.547,0.294 0.594,0.178 0.617,0.061 z"
         style="fill:none;stroke:#231f20;stroke-width:0.343;stroke-linecap:round;stroke-linejoin:round;stroke-miterlimit:10;stroke-dasharray:none;stroke-opacity:1"
         id="path1647" />
      <path
         d="m 368.932,256.2823 0.617,-0.061 0.594,-0.178 0.547,-0.294 0.479,-0.393 0.393,-0.479 0.293,-0.547 0.18,-0.594 0.06,-0.616 v -33.509 l -0.06,-0.617 -0.18,-0.594 -0.293,-0.547 -0.393,-0.479 -0.479,-0.393 -0.547,-0.293 -0.594,-0.179 -0.617,-0.061 h -13.429 l -0.617,0.061 -0.593,0.179 -0.547,0.293 -0.478,0.393 -0.394,0.479 -0.292,0.547 -0.179,0.594 -0.061,0.617 v 33.509 l 0.061,0.616 0.179,0.594 0.292,0.547 0.394,0.479 0.478,0.393 0.547,0.294 0.593,0.178 0.617,0.061 z"
         style="fill:none;stroke:#231f20;stroke-width:0.343;stroke-linecap:round;stroke-linejoin:round;stroke-miterlimit:10;stroke-dasharray:none;stroke-opacity:1"
         id="path1655" />
      <path
         d="m 389.9881,256.2823 0.617,-0.061 0.592,-0.178 0.547,-0.294 0.479,-0.393 0.394,-0.479 0.292,-0.547 0.18,-0.594 0.06,-0.616 v -33.509 l -0.06,-0.617 -0.18,-0.594 -0.292,-0.547 -0.394,-0.479 -0.479,-0.393 -0.547,-0.293 -0.592,-0.179 -0.617,-0.061 h -13.431 l -0.617,0.061 -0.594,0.179 -0.546,0.293 -0.478,0.393 -0.394,0.479 -0.292,0.547 -0.179,0.594 -0.061,0.617 v 33.509 l 0.061,0.616 0.179,0.594 0.292,0.547 0.394,0.479 0.478,0.393 0.546,0.294 0.594,0.178 0.617,0.061 z"
         style="fill:none;stroke:#231f20;stroke-width:0.343;stroke-linecap:round;stroke-linejoin:round;stroke-miterlimit:10;stroke-dasharray:none;stroke-opacity:1"
         id="path1663" />
      <path
         d="m 411.0423,256.2823 0.617,-0.061 0.592,-0.178 0.547,-0.294 0.479,-0.393 0.394,-0.479 0.292,-0.547 0.18,-0.594 0.06,-0.616 v -33.509 l -0.06,-0.617 -0.18,-0.594 -0.292,-0.547 -0.394,-0.479 -0.479,-0.393 -0.547,-0.293 -0.592,-0.179 -0.617,-0.061 h -13.431 l -0.617,0.061 -0.594,0.179 -0.546,0.293 -0.478,0.393 -0.394,0.479 -0.292,0.547 -0.179,0.594 -0.061,0.617 v 33.509 l 0.061,0.616 0.179,0.594 0.292,0.547 0.394,0.479 0.478,0.393 0.546,0.294 0.594,0.178 0.617,0.061 z"
         style="fill:none;stroke:#231f20;stroke-width:0.343;stroke-linecap:round;stroke-linejoin:round;stroke-miterlimit:10;stroke-dasharray:none;stroke-opacity:1"
         id="path1671" />
      <path
         d="m 432.0964,256.2823 0.617,-0.061 0.594,-0.178 0.547,-0.294 0.477,-0.393 0.394,-0.479 0.292,-0.547 0.18,-0.594 0.06,-0.616 v -33.509 l -0.06,-0.617 -0.18,-0.594 -0.292,-0.547 -0.394,-0.479 -0.477,-0.393 -0.547,-0.293 -0.594,-0.179 -0.617,-0.061 h -13.431 l -0.617,0.061 -0.592,0.179 -0.547,0.293 -0.479,0.393 -0.394,0.479 -0.292,0.547 -0.179,0.594 -0.061,0.617 v 33.509 l 0.061,0.616 0.179,0.594 0.292,0.547 0.394,0.479 0.479,0.393 0.547,0.294 0.592,0.178 0.617,0.061 z"
         style="fill:none;stroke:#231f20;stroke-width:0.343;stroke-linecap:round;stroke-linejoin:round;stroke-miterlimit:10;stroke-dasharray:none;stroke-opacity:1"
         id="path1679" />
      <path
         d="m 168.9184,299.4854 0.617,-0.06 0.594,-0.179 0.547,-0.292 0.478,-0.394 0.394,-0.478 0.291,-0.547 0.18,-0.594 0.061,-0.617 v -33.51 l -0.061,-0.617 -0.18,-0.594 -0.291,-0.547 -0.394,-0.479 -0.478,-0.393 -0.547,-0.291 -0.594,-0.181 -0.617,-0.061 h -13.429 l -0.617,0.061 -0.594,0.181 -0.546,0.291 -0.48,0.393 -0.392,0.479 -0.294,0.547 -0.179,0.594 -0.06,0.617 v 33.51 l 0.06,0.617 0.179,0.594 0.294,0.547 0.392,0.478 0.48,0.394 0.546,0.292 0.594,0.179 0.617,0.06 z"
         style="fill:none;stroke:#231f20;stroke-width:0.343;stroke-linecap:round;stroke-linejoin:round;stroke-miterlimit:10;stroke-dasharray:none;stroke-opacity:1"
         id="path1687" />
      <path
         d="m 211.0266,299.4854 0.617,-0.06 0.594,-0.179 0.546,-0.292 0.48,-0.394 0.392,-0.478 0.292,-0.547 0.181,-0.594 0.061,-0.617 v -33.51 l -0.061,-0.617 -0.181,-0.594 -0.292,-0.547 -0.392,-0.479 -0.48,-0.393 -0.546,-0.291 -0.594,-0.181 -0.617,-0.061 h -13.429 l -0.617,0.061 -0.594,0.181 -0.546,0.291 -0.48,0.393 -0.392,0.479 -0.292,0.547 -0.181,0.594 -0.061,0.617 v 33.51 l 0.061,0.617 0.181,0.594 0.292,0.547 0.392,0.478 0.48,0.394 0.546,0.292 0.594,0.179 0.617,0.06 z"
         style="fill:none;stroke:#231f20;stroke-width:0.343;stroke-linecap:round;stroke-linejoin:round;stroke-miterlimit:10;stroke-dasharray:none;stroke-opacity:1"
         id="path1695" />
      <path
         d="m 232.0808,299.4854 0.617,-0.06 0.594,-0.179 0.546,-0.292 0.48,-0.394 0.392,-0.478 0.292,-0.547 0.182,-0.594 0.06,-0.617 v -33.51 l -0.06,-0.617 -0.182,-0.594 -0.292,-0.547 -0.392,-0.479 -0.48,-0.393 -0.546,-0.291 -0.594,-0.181 -0.617,-0.061 h -13.429 l -0.617,0.061 -0.594,0.181 -0.547,0.291 -0.479,0.393 -0.393,0.479 -0.291,0.547 -0.181,0.594 -0.061,0.617 v 33.51 l 0.061,0.617 0.181,0.594 0.291,0.547 0.393,0.478 0.479,0.394 0.547,0.292 0.594,0.179 0.617,0.06 z"
         style="fill:none;stroke:#231f20;stroke-width:0.343;stroke-linecap:round;stroke-linejoin:round;stroke-miterlimit:10;stroke-dasharray:none;stroke-opacity:1"
         id="path1703" />
      <path
         d="m 253.1349,299.4854 0.617,-0.06 0.593,-0.179 0.547,-0.292 0.48,-0.394 0.392,-0.478 0.292,-0.547 0.182,-0.594 0.06,-0.617 v -33.51 l -0.06,-0.617 -0.182,-0.594 -0.292,-0.547 -0.392,-0.479 -0.48,-0.393 -0.547,-0.291 -0.593,-0.181 -0.617,-0.061 h -13.429 l -0.617,0.061 -0.594,0.181 -0.547,0.291 -0.479,0.393 -0.393,0.479 -0.291,0.547 -0.181,0.594 -0.061,0.617 v 33.51 l 0.061,0.617 0.181,0.594 0.291,0.547 0.393,0.478 0.479,0.394 0.547,0.292 0.594,0.179 0.617,0.06 z"
         style="fill:none;stroke:#231f20;stroke-width:0.343;stroke-linecap:round;stroke-linejoin:round;stroke-miterlimit:10;stroke-dasharray:none;stroke-opacity:1"
         id="path1711" />
      <path
         d="m 295.2427,299.4854 0.617,-0.06 0.594,-0.179 0.547,-0.292 0.479,-0.394 0.393,-0.478 0.291,-0.547 0.182,-0.594 0.06,-0.617 v -33.51 l -0.06,-0.617 -0.182,-0.594 -0.291,-0.547 -0.393,-0.479 -0.479,-0.393 -0.547,-0.291 -0.594,-0.181 -0.617,-0.061 h -13.429 l -0.617,0.061 -0.593,0.181 -0.547,0.291 -0.48,0.393 -0.392,0.479 -0.292,0.547 -0.18,0.594 -0.06,0.617 v 33.51 l 0.06,0.617 0.18,0.594 0.292,0.547 0.392,0.478 0.48,0.394 0.547,0.292 0.593,0.179 0.617,0.06 z"
         style="fill:none;stroke:#231f20;stroke-width:0.343;stroke-linecap:round;stroke-linejoin:round;stroke-miterlimit:10;stroke-dasharray:none;stroke-opacity:1"
         id="path1719" />
      <path
         d="m 316.2969,299.4854 0.617,-0.06 0.594,-0.179 0.547,-0.292 0.479,-0.394 0.393,-0.478 0.291,-0.547 0.182,-0.594 0.06,-0.617 v -33.51 l -0.06,-0.617 -0.182,-0.594 -0.291,-0.547 -0.393,-0.479 -0.479,-0.393 -0.547,-0.291 -0.594,-0.181 -0.617,-0.061 h -13.429 l -0.617,0.061 -0.594,0.181 -0.546,0.291 -0.48,0.393 -0.392,0.479 -0.292,0.547 -0.179,0.594 -0.062,0.617 v 33.51 l 0.062,0.617 0.179,0.594 0.292,0.547 0.392,0.478 0.48,0.394 0.546,0.292 0.594,0.179 0.617,0.06 z"
         style="fill:none;stroke:#231f20;stroke-width:0.343;stroke-linecap:round;stroke-linejoin:round;stroke-miterlimit:10;stroke-dasharray:none;stroke-opacity:1"
         id="path1727" />
      <path
         d="m 358.4052,299.4854 0.617,-0.06 0.594,-0.179 0.546,-0.292 0.48,-0.394 0.392,-0.478 0.294,-0.547 0.18,-0.594 0.06,-0.617 v -33.51 l -0.06,-0.617 -0.18,-0.594 -0.294,-0.547 -0.392,-0.479 -0.48,-0.393 -0.546,-0.291 -0.594,-0.181 -0.617,-0.061 h -13.429 l -0.617,0.061 -0.594,0.181 -0.546,0.291 -0.478,0.393 -0.394,0.479 -0.292,0.547 -0.18,0.594 -0.062,0.617 v 33.51 l 0.062,0.617 0.18,0.594 0.292,0.547 0.394,0.478 0.478,0.394 0.546,0.292 0.594,0.179 0.617,0.06 z"
         style="fill:none;stroke:#231f20;stroke-width:0.343;stroke-linecap:round;stroke-linejoin:round;stroke-miterlimit:10;stroke-dasharray:none;stroke-opacity:1"
         id="path1735" />
      <path
         d="m 379.4608,299.4854 0.617,-0.06 0.592,-0.179 0.547,-0.292 0.48,-0.394 0.392,-0.478 0.293,-0.547 0.18,-0.594 0.06,-0.617 v -33.51 l -0.06,-0.617 -0.18,-0.594 -0.293,-0.547 -0.392,-0.479 -0.48,-0.393 -0.547,-0.291 -0.592,-0.181 -0.617,-0.061 h -13.43 l -0.617,0.061 -0.594,0.181 -0.547,0.291 -0.478,0.393 -0.394,0.479 -0.292,0.547 -0.179,0.594 -0.06,0.617 v 33.51 l 0.06,0.617 0.179,0.594 0.292,0.547 0.394,0.478 0.478,0.394 0.547,0.292 0.594,0.179 0.617,0.06 z"
         style="fill:none;stroke:#231f20;stroke-width:0.343;stroke-linecap:round;stroke-linejoin:round;stroke-miterlimit:10;stroke-dasharray:none;stroke-opacity:1"
         id="path1743" />
      <path
         d="m 400.5149,299.4854 0.617,-0.06 0.592,-0.179 0.547,-0.292 0.479,-0.394 0.395,-0.478 0.291,-0.547 0.18,-0.594 0.06,-0.617 v -33.51 l -0.06,-0.617 -0.18,-0.594 -0.291,-0.547 -0.395,-0.479 -0.479,-0.393 -0.547,-0.291 -0.592,-0.181 -0.617,-0.061 h -13.43 l -0.617,0.061 -0.594,0.181 -0.547,0.291 -0.478,0.393 -0.394,0.479 -0.292,0.547 -0.179,0.594 -0.06,0.617 v 33.51 l 0.06,0.617 0.179,0.594 0.292,0.547 0.394,0.478 0.478,0.394 0.547,0.292 0.594,0.179 0.617,0.06 z"
         style="fill:none;stroke:#231f20;stroke-width:0.343;stroke-linecap:round;stroke-linejoin:round;stroke-miterlimit:10;stroke-dasharray:none;stroke-opacity:1"
         id="path1751" />
      <path
         d="m 137.3374,256.2823 0.617,-0.061 0.594,-0.178 0.546,-0.294 0.478,-0.393 0.394,-0.479 0.292,-0.547 0.18,-0.594 0.06,-0.616 v -33.509 l -0.06,-0.617 -0.18,-0.594 -0.292,-0.547 -0.394,-0.479 -0.478,-0.393 -0.546,-0.293 -0.594,-0.179 -0.617,-0.061 h -13.43 l -0.617,0.061 -0.593,0.179 -0.547,0.293 -0.479,0.393 -0.393,0.479 -0.293,0.547 -0.179,0.594 -0.061,0.617 v 33.509 l 0.061,0.616 0.179,0.594 0.293,0.547 0.393,0.479 0.479,0.393 0.547,0.294 0.593,0.178 0.617,0.061 z"
         style="fill:none;stroke:#231f20;stroke-width:0.343;stroke-linecap:round;stroke-linejoin:round;stroke-miterlimit:10;stroke-dasharray:none;stroke-opacity:1"
         id="path1759" />
      <path
         d="m 158.3915,256.2823 0.617,-0.061 0.594,-0.178 0.546,-0.294 0.478,-0.393 0.394,-0.479 0.292,-0.547 0.18,-0.594 0.061,-0.616 v -33.509 l -0.061,-0.617 -0.18,-0.594 -0.292,-0.547 -0.394,-0.479 -0.478,-0.393 -0.546,-0.293 -0.594,-0.179 -0.617,-0.061 h -13.43 l -0.617,0.061 -0.593,0.179 -0.547,0.293 -0.479,0.393 -0.393,0.479 -0.293,0.547 -0.179,0.594 -0.061,0.617 v 33.509 l 0.061,0.616 0.179,0.594 0.293,0.547 0.393,0.479 0.479,0.393 0.547,0.294 0.593,0.178 0.617,0.061 z"
         style="fill:none;stroke:#231f20;stroke-width:0.343;stroke-linecap:round;stroke-linejoin:round;stroke-miterlimit:10;stroke-dasharray:none;stroke-opacity:1"
         id="path1767" />
      <path
         d="m 168.9184,299.4854 0.617,-0.06 0.594,-0.179 0.547,-0.292 0.478,-0.394 0.394,-0.478 0.291,-0.547 0.18,-0.594 0.061,-0.617 v -33.51 l -0.061,-0.617 -0.18,-0.594 -0.291,-0.547 -0.394,-0.479 -0.478,-0.393 -0.547,-0.291 -0.594,-0.181 -0.617,-0.061 h -13.429 l -0.617,0.061 -0.594,0.181 -0.546,0.291 -0.48,0.393 -0.392,0.479 -0.294,0.547 -0.179,0.594 -0.06,0.617 v 33.51 l 0.06,0.617 0.179,0.594 0.294,0.547 0.392,0.478 0.48,0.394 0.546,0.292 0.594,0.179 0.617,0.06 z"
         style="fill:none;stroke:#231f20;stroke-width:0.34321622;stroke-linecap:round;stroke-linejoin:round;stroke-miterlimit:10;stroke-dasharray:none;stroke-opacity:1"
         id="path1775" />
    </g>
    <g
       id="g5194"
       inkscape:label="buttons right"
       transform="matrix(0.81872587,0,0,-0.81872587,-92.988336,314.27513)">
      <path
         d="m 344.5725,308.4125 -0.04,-0.405 -0.118,-0.386 -0.191,-0.359 -0.258,-0.312 -0.313,-0.258 -0.358,-0.191 -0.387,-0.117 -0.404,-0.041 h -9.859 l -0.404,0.041 -0.387,0.117 -0.358,0.191 -0.313,0.258 -0.258,0.312 -0.191,0.359 -0.118,0.386 -0.04,0.405 v 3.773 l 0.04,0.403 0.118,0.389 0.191,0.356 0.258,0.315 0.313,0.256 0.358,0.192 0.387,0.117 0.404,0.041 h 9.859 l 0.404,-0.041 0.387,-0.117 0.358,-0.192 0.313,-0.256 0.258,-0.315 0.191,-0.356 0.118,-0.389 0.04,-0.403 z"
         style="fill:none;stroke:#231f20;stroke-width:0.343;stroke-linecap:round;stroke-linejoin:round;stroke-miterlimit:10;stroke-dasharray:none;stroke-opacity:1"
         id="path1351" />
      <path
         d="m 361.8531,308.4125 -0.04,-0.405 -0.117,-0.386 -0.192,-0.359 -0.256,-0.312 -0.314,-0.258 -0.357,-0.191 -0.389,-0.117 -0.402,-0.041 h -9.861 l -0.402,0.041 -0.389,0.117 -0.357,0.191 -0.314,0.258 -0.257,0.312 -0.191,0.359 -0.117,0.386 -0.041,0.405 v 3.773 l 0.041,0.403 0.117,0.389 0.191,0.356 0.257,0.315 0.314,0.256 0.357,0.192 0.389,0.117 0.402,0.041 h 9.861 l 0.402,-0.041 0.389,-0.117 0.357,-0.192 0.314,-0.256 0.256,-0.315 0.192,-0.356 0.117,-0.389 0.04,-0.403 z"
         style="fill:none;stroke:#231f20;stroke-width:0.343;stroke-linecap:round;stroke-linejoin:round;stroke-miterlimit:10;stroke-dasharray:none;stroke-opacity:1"
         id="path1359" />
      <path
         d="m 379.1356,308.4125 -0.04,-0.405 -0.118,-0.386 -0.191,-0.359 -0.258,-0.312 -0.313,-0.258 -0.358,-0.191 -0.387,-0.117 -0.404,-0.041 h -9.859 l -0.404,0.041 -0.387,0.117 -0.358,0.191 -0.313,0.258 -0.258,0.312 -0.192,0.359 -0.117,0.386 -0.04,0.405 v 3.773 l 0.04,0.403 0.117,0.389 0.192,0.356 0.258,0.315 0.313,0.256 0.358,0.192 0.387,0.117 0.404,0.041 h 9.859 l 0.404,-0.041 0.387,-0.117 0.358,-0.192 0.313,-0.256 0.258,-0.315 0.191,-0.356 0.118,-0.389 0.04,-0.403 z"
         style="fill:none;stroke:#231f20;stroke-width:0.343;stroke-linecap:round;stroke-linejoin:round;stroke-miterlimit:10;stroke-dasharray:none;stroke-opacity:1"
         id="path1367" />
      <path
         d="m 404.3271,308.4125 -0.041,-0.405 -0.117,-0.386 -0.191,-0.359 -0.256,-0.312 -0.314,-0.258 -0.357,-0.191 -0.39,-0.117 -0.402,-0.041 h -9.86 l -0.403,0.041 -0.388,0.117 -0.358,0.191 -0.313,0.258 -0.257,0.312 -0.191,0.359 -0.119,0.386 -0.039,0.405 v 3.773 l 0.039,0.403 0.119,0.389 0.191,0.356 0.257,0.315 0.313,0.256 0.358,0.192 0.388,0.117 0.403,0.041 h 9.86 l 0.402,-0.041 0.39,-0.117 0.357,-0.192 0.314,-0.256 0.256,-0.315 0.191,-0.356 0.117,-0.389 0.041,-0.403 z"
         style="fill:none;stroke:#231f20;stroke-width:0.343;stroke-linecap:round;stroke-linejoin:round;stroke-miterlimit:10;stroke-dasharray:none;stroke-opacity:1"
         id="path1375" />
      <path
         d="m 421.6076,308.4125 -0.039,-0.405 -0.117,-0.386 -0.191,-0.359 -0.258,-0.312 -0.314,-0.258 -0.357,-0.191 -0.388,-0.117 -0.404,-0.041 h -9.858 l -0.404,0.041 -0.388,0.117 -0.359,0.191 -0.312,0.258 -0.258,0.312 -0.191,0.359 -0.118,0.386 -0.04,0.405 v 3.773 l 0.04,0.403 0.118,0.389 0.191,0.356 0.258,0.315 0.312,0.256 0.359,0.192 0.388,0.117 0.404,0.041 h 9.858 l 0.404,-0.041 0.388,-0.117 0.357,-0.192 0.314,-0.256 0.258,-0.315 0.191,-0.356 0.117,-0.389 0.039,-0.403 z"
         style="fill:none;stroke:#231f20;stroke-width:0.343;stroke-linecap:round;stroke-linejoin:round;stroke-miterlimit:10;stroke-dasharray:none;stroke-opacity:1"
         id="path1383" />
      <path
         d="m 438.8897,308.4125 -0.041,-0.405 -0.117,-0.386 -0.192,-0.359 -0.254,-0.312 -0.316,-0.258 -0.355,-0.191 -0.389,-0.117 -0.402,-0.041 h -9.862 l -0.402,0.041 -0.39,0.117 -0.356,0.191 -0.314,0.258 -0.257,0.312 -0.191,0.359 -0.119,0.386 -0.038,0.405 v 3.773 l 0.038,0.403 0.119,0.389 0.191,0.356 0.257,0.315 0.314,0.256 0.356,0.192 0.39,0.117 0.402,0.041 h 9.862 l 0.402,-0.041 0.389,-0.117 0.355,-0.192 0.316,-0.256 0.254,-0.315 0.192,-0.356 0.117,-0.389 0.041,-0.403 z"
         style="fill:none;stroke:#231f20;stroke-width:0.343;stroke-linecap:round;stroke-linejoin:round;stroke-miterlimit:10;stroke-dasharray:none;stroke-opacity:1"
         id="path1391" />
    </g>
    <g
       id="g5222"
       inkscape:label="trigger pads"
       transform="matrix(0.81872587,0,0,-0.81872587,-92.988336,314.27513)">
      <path
         d="m 332.402,351.0677 -0.357,0.037 -0.342,0.103 -0.316,0.169 -0.277,0.226 -0.226,0.277 -0.169,0.315 -0.104,0.342 -0.035,0.355 v 20.693 l 0.035,0.355 0.104,0.342 0.169,0.315 0.226,0.277 0.277,0.227 0.316,0.169 0.342,0.104 0.357,0.035 h 20.688 l 0.358,-0.035 0.342,-0.104 0.315,-0.169 0.277,-0.227 0.226,-0.277 0.17,-0.315 0.104,-0.342 0.035,-0.355 v -20.693 l -0.035,-0.355 -0.104,-0.342 -0.17,-0.315 -0.226,-0.277 -0.277,-0.226 -0.315,-0.169 -0.342,-0.103 -0.358,-0.037 z"
         style="fill:none;stroke:#231f20;stroke-width:0.343;stroke-linecap:round;stroke-linejoin:round;stroke-miterlimit:10;stroke-dasharray:none;stroke-opacity:1"
         id="path1791"
         inkscape:label="trigger pad 1" />
      <path
         d="m 332.402,323.0772 -0.357,0.035 -0.342,0.103 -0.316,0.171 -0.277,0.224 -0.226,0.279 -0.169,0.315 -0.104,0.342 -0.035,0.356 v 20.69 l 0.035,0.357 0.104,0.342 0.169,0.315 0.226,0.276 0.277,0.227 0.316,0.168 0.342,0.105 0.357,0.036 h 20.688 l 0.358,-0.036 0.342,-0.105 0.315,-0.168 0.277,-0.227 0.226,-0.276 0.17,-0.315 0.104,-0.342 0.035,-0.357 v -20.69 l -0.035,-0.356 -0.104,-0.342 -0.17,-0.315 -0.226,-0.279 -0.277,-0.224 -0.315,-0.171 -0.342,-0.103 -0.358,-0.035 z"
         style="fill:none;stroke:#231f20;stroke-width:0.343;stroke-linecap:round;stroke-linejoin:round;stroke-miterlimit:10;stroke-dasharray:none;stroke-opacity:1"
         id="path1799"
         inkscape:label="trigger pad 5" />
      <path
         d="m 360.3925,351.0677 -0.355,0.037 -0.343,0.103 -0.317,0.169 -0.275,0.226 -0.228,0.277 -0.168,0.315 -0.104,0.342 -0.035,0.355 v 20.693 l 0.035,0.355 0.104,0.342 0.168,0.315 0.228,0.277 0.275,0.227 0.317,0.169 0.343,0.104 0.355,0.035 h 20.69 l 0.356,-0.035 0.342,-0.104 0.317,-0.169 0.275,-0.227 0.228,-0.277 0.168,-0.315 0.104,-0.342 0.035,-0.355 v -20.693 l -0.035,-0.355 -0.104,-0.342 -0.168,-0.315 -0.228,-0.277 -0.275,-0.226 -0.317,-0.169 -0.342,-0.103 -0.356,-0.037 z"
         style="fill:none;stroke:#231f20;stroke-width:0.343;stroke-linecap:round;stroke-linejoin:round;stroke-miterlimit:10;stroke-dasharray:none;stroke-opacity:1"
         id="path1807"
         inkscape:label="trigger pad 2" />
      <path
         d="m 360.3925,323.0772 -0.355,0.035 -0.343,0.103 -0.317,0.171 -0.275,0.224 -0.228,0.279 -0.168,0.315 -0.104,0.342 -0.035,0.356 v 20.69 l 0.035,0.357 0.104,0.342 0.168,0.315 0.228,0.276 0.275,0.227 0.317,0.168 0.343,0.105 0.355,0.036 h 20.69 l 0.356,-0.036 0.342,-0.105 0.317,-0.168 0.275,-0.227 0.228,-0.276 0.168,-0.315 0.104,-0.342 0.035,-0.357 v -20.69 l -0.035,-0.356 -0.104,-0.342 -0.168,-0.315 -0.228,-0.279 -0.275,-0.224 -0.317,-0.171 -0.342,-0.103 -0.356,-0.035 z"
         style="fill:none;stroke:#231f20;stroke-width:0.343;stroke-linecap:round;stroke-linejoin:round;stroke-miterlimit:10;stroke-dasharray:none;stroke-opacity:1"
         id="path1815"
         inkscape:label="trigger pad 6" />
      <path
         d="m 388.3845,351.0677 -0.357,0.037 -0.342,0.103 -0.316,0.169 -0.276,0.226 -0.227,0.277 -0.169,0.315 -0.104,0.342 -0.035,0.355 v 20.693 l 0.035,0.355 0.104,0.342 0.169,0.315 0.227,0.277 0.276,0.227 0.316,0.169 0.342,0.104 0.357,0.035 h 20.688 l 0.358,-0.035 0.342,-0.104 0.315,-0.169 0.277,-0.227 0.227,-0.277 0.169,-0.315 0.104,-0.342 0.035,-0.355 v -20.693 l -0.035,-0.355 -0.104,-0.342 -0.169,-0.315 -0.227,-0.277 -0.277,-0.226 -0.315,-0.169 -0.342,-0.103 -0.358,-0.037 z"
         style="fill:none;stroke:#231f20;stroke-width:0.343;stroke-linecap:round;stroke-linejoin:round;stroke-miterlimit:10;stroke-dasharray:none;stroke-opacity:1"
         id="path1823"
         inkscape:label="trigger pad 3" />
      <path
         d="m 388.3845,323.0772 -0.357,0.035 -0.342,0.103 -0.316,0.171 -0.276,0.224 -0.227,0.279 -0.169,0.315 -0.104,0.342 -0.035,0.356 v 20.69 l 0.035,0.357 0.104,0.342 0.169,0.315 0.227,0.276 0.276,0.227 0.316,0.168 0.342,0.105 0.357,0.036 h 20.688 l 0.358,-0.036 0.342,-0.105 0.315,-0.168 0.277,-0.227 0.227,-0.276 0.169,-0.315 0.104,-0.342 0.035,-0.357 v -20.69 l -0.035,-0.356 -0.104,-0.342 -0.169,-0.315 -0.227,-0.279 -0.277,-0.224 -0.315,-0.171 -0.342,-0.103 -0.358,-0.035 z"
         style="fill:none;stroke:#231f20;stroke-width:0.343;stroke-linecap:round;stroke-linejoin:round;stroke-miterlimit:10;stroke-dasharray:none;stroke-opacity:1"
         id="path1831"
         inkscape:label="trigger pad 7" />
      <path
         d="m 416.375,351.0677 -0.355,0.037 -0.344,0.103 -0.316,0.169 -0.276,0.226 -0.227,0.277 -0.169,0.315 -0.104,0.342 -0.033,0.355 v 20.693 l 0.033,0.355 0.104,0.342 0.169,0.315 0.227,0.277 0.276,0.227 0.316,0.169 0.344,0.104 0.355,0.035 h 20.689 l 0.356,-0.035 0.343,-0.104 0.314,-0.169 0.279,-0.227 0.228,-0.277 0.167,-0.315 0.104,-0.342 0.035,-0.355 v -20.693 l -0.035,-0.355 -0.104,-0.342 -0.167,-0.315 -0.228,-0.277 -0.279,-0.226 -0.314,-0.169 -0.343,-0.103 -0.356,-0.037 z"
         style="fill:none;stroke:#231f20;stroke-width:0.343;stroke-linecap:round;stroke-linejoin:round;stroke-miterlimit:10;stroke-dasharray:none;stroke-opacity:1"
         id="path1839"
         inkscape:label="trigger pad 4" />
      <path
         d="m 416.375,323.0772 -0.355,0.035 -0.344,0.103 -0.316,0.171 -0.276,0.224 -0.227,0.279 -0.169,0.315 -0.104,0.342 -0.033,0.356 v 20.69 l 0.033,0.357 0.104,0.342 0.169,0.315 0.227,0.276 0.276,0.227 0.316,0.168 0.344,0.105 0.355,0.036 h 20.689 l 0.356,-0.036 0.343,-0.105 0.314,-0.168 0.279,-0.227 0.228,-0.276 0.167,-0.315 0.104,-0.342 0.035,-0.357 v -20.69 l -0.035,-0.356 -0.104,-0.342 -0.167,-0.315 -0.228,-0.279 -0.279,-0.224 -0.314,-0.171 -0.343,-0.103 -0.356,-0.035 z"
         style="fill:none;stroke:#231f20;stroke-width:0.343;stroke-linecap:round;stroke-linejoin:round;stroke-miterlimit:10;stroke-dasharray:none;stroke-opacity:1"
         id="path1847"
         inkscape:label="trigger pad 8" />
    </g>
    <path
       d="M 99.744728,53.079308 V 7.9863434 c 0,-1.493356 0.573112,-2.9334948 1.599792,-4.0191253 1.10528,-1.1683218 2.64285,-1.8314898 4.25164,-1.8314898 h 58.04603 c 1.60716,0 3.14554,0.663168 4.25082,1.8314898 1.0275,1.0856305 1.59979,2.5257693 1.59979,4.0191253 V 53.079308 c 0,1.494994 -0.57229,2.932676 -1.59979,4.018307 -1.10528,1.170778 -2.64366,1.832308 -4.25082,1.832308 h -58.04603 c -1.60879,0 -3.14636,-0.66153 -4.25164,-1.832308 -1.02668,-1.085631 -1.599792,-2.523313 -1.599792,-4.018307 z"
       style="fill:none;stroke:#231f20;stroke-width:0.280823;stroke-linecap:round;stroke-linejoin:round;stroke-miterlimit:10;stroke-dasharray:none;stroke-opacity:1"
       id="path1779"
       inkscape:label="X-Y pad" />
    <g
       id="g5208"
       inkscape:label="buttons left"
       transform="matrix(0.81872587,0,0,-0.81872587,-92.988336,314.27513)">
      <path
         d="m 131.1086,308.4125 -0.039,-0.405 -0.118,-0.386 -0.191,-0.359 -0.257,-0.312 -0.314,-0.258 -0.357,-0.191 -0.388,-0.117 -0.404,-0.041 h -9.858 l -0.404,0.041 -0.388,0.117 -0.359,0.191 -0.312,0.258 -0.258,0.312 -0.191,0.359 -0.117,0.386 -0.041,0.405 v 3.773 l 0.041,0.403 0.117,0.389 0.191,0.356 0.258,0.315 0.312,0.256 0.359,0.192 0.388,0.117 0.404,0.041 h 9.858 l 0.404,-0.041 0.388,-0.117 0.357,-0.192 0.314,-0.256 0.257,-0.315 0.191,-0.356 0.118,-0.389 0.039,-0.403 z"
         style="fill:none;stroke:#231f20;stroke-width:0.343;stroke-linecap:round;stroke-linejoin:round;stroke-miterlimit:10;stroke-dasharray:none;stroke-opacity:1"
         id="path1303" />
      <path
         d="m 148.3911,308.4125 -0.041,-0.405 -0.117,-0.386 -0.191,-0.359 -0.256,-0.312 -0.314,-0.258 -0.358,-0.191 -0.389,-0.117 -0.403,-0.041 h -9.859 l -0.403,0.041 -0.388,0.117 -0.358,0.191 -0.313,0.258 -0.257,0.312 -0.191,0.359 -0.119,0.386 -0.039,0.405 v 3.773 l 0.039,0.403 0.119,0.389 0.191,0.356 0.257,0.315 0.313,0.256 0.358,0.192 0.388,0.117 0.403,0.041 h 9.859 l 0.403,-0.041 0.389,-0.117 0.358,-0.192 0.314,-0.256 0.256,-0.315 0.191,-0.356 0.117,-0.389 0.041,-0.403 z"
         style="fill:none;stroke:#231f20;stroke-width:0.343;stroke-linecap:round;stroke-linejoin:round;stroke-miterlimit:10;stroke-dasharray:none;stroke-opacity:1"
         id="path1311" />
      <path
         d="m 165.6716,308.4125 -0.039,-0.405 -0.118,-0.386 -0.19,-0.359 -0.258,-0.312 -0.314,-0.258 -0.357,-0.191 -0.388,-0.117 -0.404,-0.041 h -9.858 l -0.404,0.041 -0.388,0.117 -0.359,0.191 -0.312,0.258 -0.258,0.312 -0.191,0.359 -0.117,0.386 -0.041,0.405 v 3.773 l 0.041,0.403 0.117,0.389 0.191,0.356 0.258,0.315 0.312,0.256 0.359,0.192 0.388,0.117 0.404,0.041 h 9.858 l 0.404,-0.041 0.388,-0.117 0.357,-0.192 0.314,-0.256 0.258,-0.315 0.19,-0.356 0.118,-0.389 0.039,-0.403 z"
         style="fill:none;stroke:#231f20;stroke-width:0.343;stroke-linecap:round;stroke-linejoin:round;stroke-miterlimit:10;stroke-dasharray:none;stroke-opacity:1"
         id="path1319" />
      <path
         d="m 190.8646,308.4125 -0.04,-0.405 -0.118,-0.386 -0.191,-0.359 -0.257,-0.312 -0.313,-0.258 -0.359,-0.191 -0.387,-0.117 -0.404,-0.041 h -9.859 l -0.404,0.041 -0.387,0.117 -0.358,0.191 -0.313,0.258 -0.258,0.312 -0.191,0.359 -0.118,0.386 -0.039,0.405 v 3.773 l 0.039,0.403 0.118,0.389 0.191,0.356 0.258,0.315 0.313,0.256 0.358,0.192 0.387,0.117 0.404,0.041 h 9.859 l 0.404,-0.041 0.387,-0.117 0.359,-0.192 0.313,-0.256 0.257,-0.315 0.191,-0.356 0.118,-0.389 0.04,-0.403 z"
         style="fill:none;stroke:#231f20;stroke-width:0.343;stroke-linecap:round;stroke-linejoin:round;stroke-miterlimit:10;stroke-dasharray:none;stroke-opacity:1"
         id="path1327" />
      <path
         d="m 208.1452,308.4125 -0.038,-0.405 -0.119,-0.386 -0.192,-0.359 -0.256,-0.312 -0.314,-0.258 -0.357,-0.191 -0.388,-0.117 -0.403,-0.041 h -9.86 l -0.403,0.041 -0.388,0.117 -0.358,0.191 -0.314,0.258 -0.257,0.312 -0.191,0.359 -0.117,0.386 -0.04,0.405 v 3.773 l 0.04,0.403 0.117,0.389 0.191,0.356 0.257,0.315 0.314,0.256 0.358,0.192 0.388,0.117 0.403,0.041 h 9.86 l 0.403,-0.041 0.388,-0.117 0.357,-0.192 0.314,-0.256 0.256,-0.315 0.192,-0.356 0.119,-0.389 0.038,-0.403 z"
         style="fill:none;stroke:#231f20;stroke-width:0.343;stroke-linecap:round;stroke-linejoin:round;stroke-miterlimit:10;stroke-dasharray:none;stroke-opacity:1"
         id="path1335" />
      <path
         d="m 225.4276,308.4125 -0.04,-0.405 -0.118,-0.386 -0.191,-0.359 -0.257,-0.312 -0.313,-0.258 -0.359,-0.191 -0.387,-0.117 -0.404,-0.041 h -9.859 l -0.404,0.041 -0.387,0.117 -0.358,0.191 -0.313,0.258 -0.258,0.312 -0.191,0.359 -0.118,0.386 -0.039,0.405 v 3.773 l 0.039,0.403 0.118,0.389 0.191,0.356 0.258,0.315 0.313,0.256 0.358,0.192 0.387,0.117 0.404,0.041 h 9.859 l 0.404,-0.041 0.387,-0.117 0.359,-0.192 0.313,-0.256 0.257,-0.315 0.191,-0.356 0.118,-0.389 0.04,-0.403 z"
         style="fill:none;stroke:#231f20;stroke-width:0.343;stroke-linecap:round;stroke-linejoin:round;stroke-miterlimit:10;stroke-dasharray:none;stroke-opacity:1"
         id="path1343" />
    </g>
    <g
       id="g5336"
       inkscape:label="encoders"
       transform="matrix(0.81872587,0,0,-0.81872587,-92.988336,314.27513)">
      <g
         id="g5105"
         inkscape:label="encoder 5">
        <path
           d="m 137.7417,335.2359 c 0,4.706 -3.813,8.52 -8.518,8.52 -4.706,0 -8.52,-3.814 -8.52,-8.52 0,-4.704 3.814,-8.519 8.52,-8.519 4.705,0 8.518,3.815 8.518,8.519 z"
           style="fill:none;stroke:#231f20;stroke-width:0.343;stroke-linecap:round;stroke-linejoin:round;stroke-miterlimit:10;stroke-dasharray:none;stroke-opacity:1"
           id="path1491" />
      </g>
      <g
         id="g5081"
         inkscape:label="encoder 6">
        <path
           d="m 166.7678,335.2467 c 0,4.705 -3.814,8.519 -8.519,8.519 -4.706,0 -8.52,-3.814 -8.52,-8.519 0,-4.703 3.814,-8.518 8.52,-8.518 4.705,0 8.519,3.815 8.519,8.518 z"
           style="fill:none;stroke:#231f20;stroke-width:0.343;stroke-linecap:round;stroke-linejoin:round;stroke-miterlimit:10;stroke-dasharray:none;stroke-opacity:1"
           id="path1511" />
      </g>
      <g
         id="g5057"
         inkscape:label="encoder 7">
        <path
           d="m 195.7935,335.2584 c 0,4.703 -3.814,8.517 -8.519,8.517 -4.705,0 -8.52,-3.814 -8.52,-8.517 0,-4.704 3.815,-8.518 8.52,-8.518 4.705,0 8.519,3.814 8.519,8.518 z"
           style="fill:none;stroke:#231f20;stroke-width:0.343;stroke-linecap:round;stroke-linejoin:round;stroke-miterlimit:10;stroke-dasharray:none;stroke-opacity:1"
           id="path1531" />
      </g>
      <g
         id="g5033"
         inkscape:label="encoder 8">
        <path
           d="m 224.8187,335.2701 c 0,4.702 -3.813,8.518 -8.519,8.518 -4.705,0 -8.519,-3.816 -8.519,-8.518 0,-4.706 3.814,-8.52 8.519,-8.52 4.706,0 8.519,3.814 8.519,8.52 z"
           style="fill:none;stroke:#231f20;stroke-width:0.343;stroke-linecap:round;stroke-linejoin:round;stroke-miterlimit:10;stroke-dasharray:none;stroke-opacity:1"
           id="path1551" />
      </g>
      <g
         id="g5009"
         inkscape:label="encoder 1">
        <path
           d="m 137.7417,363.2265 c 0,4.706 -3.813,8.52 -8.518,8.52 -4.706,0 -8.52,-3.814 -8.52,-8.52 0,-4.702 3.814,-8.518 8.52,-8.518 4.705,0 8.518,3.816 8.518,8.518 z"
           style="fill:none;stroke:#231f20;stroke-width:0.343;stroke-linecap:round;stroke-linejoin:round;stroke-miterlimit:10;stroke-dasharray:none;stroke-opacity:1"
           id="path1411" />
      </g>
      <g
         id="g4985"
         inkscape:label="encoder 2">
        <path
           d="m 166.7678,363.2382 c 0,4.704 -3.814,8.518 -8.519,8.518 -4.706,0 -8.52,-3.814 -8.52,-8.518 0,-4.704 3.814,-8.518 8.52,-8.518 4.705,0 8.519,3.814 8.519,8.518 z"
           style="fill:none;stroke:#231f20;stroke-width:0.343;stroke-linecap:round;stroke-linejoin:round;stroke-miterlimit:10;stroke-dasharray:none;stroke-opacity:1"
           id="path1431" />
      </g>
      <g
         id="g4961"
         inkscape:label="encoder 3">
        <path
           d="m 195.7935,363.2499 c 0,4.704 -3.814,8.518 -8.519,8.518 -4.705,0 -8.52,-3.814 -8.52,-8.518 0,-4.705 3.815,-8.519 8.52,-8.519 4.705,0 8.519,3.814 8.519,8.519 z"
           style="fill:none;stroke:#231f20;stroke-width:0.343;stroke-linecap:round;stroke-linejoin:round;stroke-miterlimit:10;stroke-dasharray:none;stroke-opacity:1"
           id="path1451" />
      </g>
      <g
         id="g4937"
         inkscape:label="encoder 4">
        <path
           d="m 224.8187,363.2606 c 0,4.703 -3.813,8.519 -8.519,8.519 -4.705,0 -8.519,-3.816 -8.519,-8.519 0,-4.706 3.814,-8.52 8.519,-8.52 4.706,0 8.519,3.814 8.519,8.52 z"
           style="fill:none;stroke:#231f20;stroke-width:0.343;stroke-linecap:round;stroke-linejoin:round;stroke-miterlimit:10;stroke-dasharray:none;stroke-opacity:1"
           id="path1471" />
      </g>
    </g>
  </g>
</svg>
